HIERARCHY
ROOT pelvis
{
  OFFSET 0 100 0
  CHANNELS 6 Xposition Yposition Zposition Zrotation Xrotation Yrotation
  JOINT pelvis_right_femur
  {
    OFFSET -10.78128 -3.44521 -0.5502486
    CHANNELS 3 Zrotation Xrotation Yrotation
    JOINT right_femur_tibia
    {
      OFFSET -0.8047443 -44.0398 -0.1307829
      CHANNELS 3 Zrotation Xrotation Yrotation
      JOINT right_tibia_foot
      {
        OFFSET 3.006224 -47.83518 -5
        CHANNELS 3 Zrotation Xrotation Yrotation
        End Site
        {
          OFFSET 0 -5 15
        }
      }
    }
  }
  JOINT pelvis_left_femur
  {
    OFFSET 10.78128 -3.44521 -0.5502486
    CHANNELS 3 Zrotation Xrotation Yrotation
    JOINT left_femur_tibia
    {
      OFFSET 0.8047443 -44.0398 -0.1307829
      CHANNELS 3 Zrotation Xrotation Yrotation
      JOINT left_tibia_foot
      {
        OFFSET -4.370144 -48.10324 -4.275266
        CHANNELS 3 Zrotation Xrotation Yrotation
        End Site
        {
          OFFSET 0 -5 15
        }
      }
    }
  }
  JOINT pelvis_spine1
  {
    OFFSET 0 6.468898 -3.129235
    CHANNELS 3 Zrotation Xrotation Yrotation
    JOINT spine1
    {
      OFFSET 0 23.15396 4.99043
      CHANNELS 3 Zrotation Xrotation Yrotation
      JOINT spine2
      {
        OFFSET 0 20.79997 -5.064912
        CHANNELS 3 Zrotation Xrotation Yrotation
        JOINT neck
        {
          OFFSET 0 14.38658 9.616178
          CHANNELS 3 Zrotation Xrotation Yrotation
          End Site
          {
            OFFSET 0 20 0
          }
        }
      }
      JOINT right_manubrium
      {
        OFFSET -5.722621 16.35077 3.967754
        CHANNELS 3 Zrotation Xrotation Yrotation
        JOINT right_clavicle
        {
          OFFSET -13.16364 1.694482 -4.693211
          CHANNELS 3 Zrotation Xrotation Yrotation
          JOINT right_humerus
          {
            OFFSET -28.5034 -0.3100689 -2.792744
            CHANNELS 3 Zrotation Xrotation Yrotation
            JOINT right_radius
            {
              OFFSET -25.15693 0.02248979 -1.271978
              CHANNELS 3 Zrotation Xrotation Yrotation
              End Site
              {
                OFFSET -15 0 0
              }
            }
          }
        }
      }
      JOINT left_manubrium
      {
        OFFSET 5.722621 16.35077 3.967754
        CHANNELS 3 Zrotation Xrotation Yrotation
        JOINT left_clavicle
        {
          OFFSET 13.16364 1.694482 -4.693211
          CHANNELS 3 Zrotation Xrotation Yrotation
          JOINT left_humerus
          {
            OFFSET 29.39168 -1.063119 -2.237045
            CHANNELS 3 Zrotation Xrotation Yrotation
            JOINT left_radius
            {
              OFFSET 24.59957 -0.9528479 0.9047498
              CHANNELS 3 Zrotation Xrotation Yrotation
              End Site
              {
                OFFSET 15 -0 -0
              }
            }
          }
        }
      }
    }
  }
}
MOTION
Frames: 11
Frame Time: 0.0416666666667
0 103.5113 0 0.7383203 -0.8979103 0.0569186 3.279986 -15.66351 8.642539 -0 38.94444 -0 -6.723353 -15.84152 -2.770933 -7.236104 5.928306 -23.36878 -0 4.57266 -0 6.931868 -18.20179 26.30262 -1.180903 -2.425421 4.08569 2.860906 10.28127 -8.104293 0.6275244 21.37525 6.644141 4.329653 -26.19175 7.224134 4.228589 -20.40387 11.95198 88.09032 32.8244 -20.8122 -0 0 13.57145 -9.836184 7.950989 5.832778 6.074347 -22.88851 -3.037371 -94.53203 24.4752 24.05953 0 0 -16.68238 8.686772 17.86438 3.69824
0.376809 103.4019 0.849766 0.7045616 -0.809173 0.1238778 3.479592 -17.54628 8.68244 -0 39.0564 -0 -6.754989 -15.31164 -3.02503 -7.222029 7.754795 -23.52222 -0 5.475557 -0 6.872557 -18.64145 26.03983 -1.15932 -2.488605 3.853671 2.978558 10.31205 -8.319967 0.6001537 21.39459 6.674846 4.373783 -26.35075 7.240035 4.15961 -20.16711 11.93829 88.74504 32.71496 -21.70262 -0 0 12.83135 -9.494142 7.762357 5.511337 6.230303 -23.28185 -3.139155 -94.11177 24.38235 23.29278 0 0 -17.37904 9.335995 18.08173 2.89467
0.707233 103.2784 2.189006 0.7006802 -1.114094 0.3125271 3.316906 -19.53372 7.856077 -0 38.89597 -0 -6.317485 -13.01928 -3.397898 -7.040638 9.973777 -22.50266 -0 6.235705 -0 5.94046 -19.23846 24.7294 -1.246682 -2.328594 3.897176 2.921045 10.159 -8.270835 0.642503 21.36974 6.730593 4.302189 -26.02555 7.312817 4.314526 -19.86279 11.87775 88.46606 32.97099 -21.52567 -0 0 12.85907 -9.876726 8.204361 5.698011 6.147547 -22.98912 -3.054303 -93.77593 24.80287 22.85321 0 0 -17.77443 8.400156 17.60711 4.072897
0.9725586 103.0467 3.760393 0.5839551 -0.9715322 0.5166425 3.505494 -21.69745 7.225737 -0 36.40656 -0 -6.487367 -12.127 -3.512182 -6.763841 11.69557 -21.92514 -0 6.174884 -0 5.576739 -19.81671 23.86727 -1.281835 -2.277367 3.82121 2.944112 10.08644 -8.33219 0.6527514 21.36962 6.770406 4.288084 -25.94734 7.358393 4.368817 -19.61968 11.84045 88.59006 33.07144 -21.7968 -0 0 12.57647 -9.886772 8.320221 5.647434 6.171217 -22.99766 -3.044383 -93.46894 24.99199 22.35139 0 0 -18.22372 8.207813 17.48321 4.323623
1.16621 102.607 5.688043 0.421052 -0.8109844 0.7426088 3.673499 -24.06113 6.251545 -0 32.58775 -0 -6.726846 -11.01727 -3.567631 -6.368449 13.43182 -20.96733 -0 5.770125 -0 5.023844 -20.45615 22.66698 -1.346261 -2.178369 3.753814 2.954874 9.949658 -8.374917 0.6772752 21.36851 6.827815 4.256361 -25.79368 7.432466 4.481922 -19.28415 11.7805 88.6179 33.28505 -22.00672 -0 0 12.3088 -9.955285 8.53597 5.637176 6.17037 -22.90213 -2.992417 -93.10017 25.34964 21.75058 0 0 -18.75407 7.72891 17.23897 4.941226
1.283853 101.9396 8.01138 0.2414821 -0.6542412 0.9893872 3.815566 -26.53364 5.179875 -0 28.37466 -0 -6.984562 -9.822515 -3.618449 -5.962707 15.23428 -19.89761 -0 5.444609 -0 4.376185 -21.0933 21.33403 -1.396739 -2.104992 3.669179 2.978865 9.838383 -8.435871 0.6942453 21.37108 6.878787 4.236359 -25.69099 7.49617 4.568258 -18.97975 11.72868 88.72188 33.45149 -22.289 -0 0 11.99891 -9.959631 8.684237 5.58608 6.189046 -22.86986 -2.95978 -92.75001 25.63445 21.16524 0 0 -19.26877 7.415904 17.06942 5.350028
1.329078 101.0251 10.8649 0.06151533 -0.6170775 1.269628 3.830123 -28.91581 3.863918 -0 23.8909 -0 -7.140686 -8.229062 -3.694661 -5.550944 17.02507 -18.47707 -0 5.395467 -0 3.431071 -21.65536 19.68109 -1.453511 -2.021598 3.576225 3.004351 9.713674 -8.502629 0.7135824 21.37358 6.935826 4.213031 -25.57252 7.567447 4.665591 -18.63906 11.67018 88.83566 33.63728 -22.60034 -0 0 11.6561 -9.9707 8.854677 5.532428 6.208619 -22.83071 -2.923035 -92.35406 25.95044 20.50662 0 0 -19.84408 7.060085 16.8724 5.815197
1.313457 99.88648 14.38064 -0.09551739 -0.7683806 1.593588 3.695815 -30.92861 2.37736 -0 19.60395 -0 -7.125677 -6.233759 -3.830289 -5.182951 18.65227 -16.71695 -0 6.017418 -0 2.152594 -22.00949 17.7515 -1.504857 -1.945379 3.476531 3.032787 9.604333 -8.579757 0.7298986 21.37456 6.9914 4.191358 -25.45886 7.633415 4.749258 -18.30161 11.61495 88.98936 33.79062 -22.95213 -0 0 11.28478 -9.986088 9.020234 5.470242 6.235948 -22.82239 -2.900937 -91.93207 26.22121 19.815 0 0 -20.44704 6.76354 16.68437 6.204441
1.257957 98.59416 18.6713 -0.2074202 -1.170232 1.960798 3.453382 -32.16643 0.8530208 -0 15.9126 -0 -6.895264 -3.949704 -4.049525 -4.885022 19.81993 -14.64709 -0 7.800141 -0 0.5469603 -21.96356 15.64853 -1.554984 -1.86884 3.36697 3.06356 9.503147 -8.669837 0.7448985 21.37297 7.049297 4.168178 -25.33478 7.698332 4.825775 -17.94451 11.55931 89.18438 33.92102 -23.35667 -0 0 10.86803 -10.02094 9.202131 5.402933 6.270233 -22.83868 -2.891831 -91.45285 26.46386 19.04406 0 0 -21.11802 6.491078 16.48254 6.562576
1.189287 97.28652 23.77106 -0.2526842 -1.844497 2.351399 3.242316 -32.22998 -0.4240669 -0 13.3179 -0 -6.448913 -1.680109 -4.373061 -4.663307 20.20494 -12.44878 -0 11.31304 -0 -1.25573 -21.32315 13.62373 -1.599418 -1.797083 3.252104 3.094517 9.423609 -8.772273 0.7568116 21.36687 7.106183 4.143768 -25.20055 7.756099 4.884652 -17.58502 11.50786 89.42452 34.00336 -23.80682 -0 0 10.41593 -10.09099 9.400071 5.3365 6.31172 -22.89085 -2.904403 -90.92169 26.64193 18.21137 0 0 -21.84345 6.272081 16.27174 6.850113
1.129821 96.15847 29.60531 -0.2256295 -2.757968 2.721319 3.246658 -30.88787 -1.145881 -0 12.10324 -0 -5.849086 0.1771975 -4.797368 -4.480391 19.56474 -10.37383 -0 17.01907 -0 -3.057553 -19.96738 11.97159 -1.635674 -1.729139 3.155365 3.1134 9.378103 -8.869779 0.7662073 21.35202 7.156494 4.113879 -25.03874 7.799137 4.919869 -17.25673 11.46633 89.66001 34.01941 -24.22404 -0 0 9.995373 -10.24915 9.635455 5.306269 6.347792 -22.95945 -2.941045 -90.37022 26.72611 17.38835 0 0 -22.5626 6.082499 16.03037 7.094114
